HIERARCHY
ROOT Hips
{
	OFFSET 0.00000 0.00000 0.00000
	CHANNELS 6 Xposition Yposition Zposition Zrotation Yrotation Xrotation 
	JOINT LHipJoint
	{
		OFFSET 0 0 0
		CHANNELS 3 Zrotation Yrotation Xrotation
		JOINT LeftHip
		{
			OFFSET 1.24777 -1.64261 0.71711
			CHANNELS 3 Zrotation Yrotation Xrotation
			JOINT LeftKnee
			{
				OFFSET 2.49329 -6.85026 0.00000
				CHANNELS 3 Zrotation Yrotation Xrotation
				JOINT LeftAnkle
				{
					OFFSET 2.36770 -6.50520 0.00000
					CHANNELS 3 Zrotation Yrotation Xrotation
					JOINT LeftToe
					{
						OFFSET 0.14820 -0.40718 2.21395
						CHANNELS 3 Zrotation Yrotation Xrotation
						End Site
						{
							OFFSET 0.00000 -0.00000 1.13491
						}
					}
				}
			}
		}
	}
	JOINT RHipJoint
	{
		OFFSET 0 0 0
		CHANNELS 3 Zrotation Yrotation Xrotation
		JOINT RightHip
		{
			OFFSET -1.18320 -1.64261 0.71711
			CHANNELS 3 Zrotation Yrotation Xrotation
			JOINT RightKnee
			{
				OFFSET -2.46559 -6.77417 0.00000
				CHANNELS 3 Zrotation Yrotation Xrotation
				JOINT RightAnkle
				{
					OFFSET -2.38450 -6.55136 0.00000
					CHANNELS 3 Zrotation Yrotation Xrotation
					JOINT RightToe
					{
						OFFSET -0.17454 -0.47954 2.02925
						CHANNELS 3 Zrotation Yrotation Xrotation
						End Site
						{
							OFFSET -0.00000 -0.00000 1.05076
						}
					}
				}
			}
		}
	}
	JOINT lowerback
	{
		OFFSET 0 0 0
		CHANNELS 3 Zrotation Yrotation Xrotation
		JOINT Chest
		{
			OFFSET -0.02305 1.98660 0.00319
			CHANNELS 3 Zrotation Yrotation Xrotation
			JOINT Chest2
			{
				OFFSET -0.00718 1.99033 -0.00533
				CHANNELS 3 Zrotation Yrotation Xrotation
				JOINT lowerneck
				{
					OFFSET 0 0 0
					CHANNELS 3 Zrotation Yrotation Xrotation
					JOINT Neck
					{
						OFFSET 0.00095 1.61015 0.10698
						CHANNELS 3 Zrotation Yrotation Xrotation
						JOINT Head
						{
							OFFSET -0.01060 1.59924 0.01317
							CHANNELS 3 Zrotation Yrotation Xrotation
							End Site
							{
								OFFSET -0.00458 1.63304 -0.00592
							}
						}
					}
				}
				JOINT LeftCollar
				{
					OFFSET 0 0 0
					CHANNELS 3 Zrotation Yrotation Xrotation
					JOINT LeftShoulder
					{
						OFFSET 3.05381 1.47088 -0.01697
CHANNELS 3 Zrotation Xrotation Yrotation
						JOINT LeftElbow
						{
OFFSET 0 -4.251060 0.000000
CHANNELS 3 Zrotation Xrotation Yrotation
							JOINT LeftWrist
							{
OFFSET 0 -3.275920 0.000000
CHANNELS 3 Zrotation Xrotation Yrotation
								JOINT lhand
								{
									OFFSET 0 0 0
CHANNELS 3 Zrotation Xrotation Yrotation
									JOINT LFingers
									{
OFFSET 0 -0.657810 0.000000
CHANNELS 3 Zrotation Xrotation Yrotation
										End Site
										{
OFFSET 0 -0.530340 0.000000
										}
									}
								}
								JOINT LThumb
								{
OFFSET 0 0.000000 0.000000
CHANNELS 3 Zrotation Xrotation Yrotation
									End Site
									{
OFFSET 0 -0.538440 0.538440
									}
								}
							}
						}
					}
				}
				JOINT RightCollar
				{
					OFFSET 0 0 0
					CHANNELS 3 Zrotation Yrotation Xrotation
					JOINT RightShoulder
					{
						OFFSET -2.83695 1.31619 -0.22674
CHANNELS 3 Zrotation Xrotation Yrotation
						JOINT RightElbow
						{
OFFSET 0 -4.460730 0.000000
CHANNELS 3 Zrotation Xrotation Yrotation
							JOINT RightWrist
							{
OFFSET 0 -3.444160 0.000000
CHANNELS 3 Zrotation Xrotation Yrotation
								JOINT rhand
								{
									OFFSET 0 0 0
CHANNELS 3 Zrotation Xrotation Yrotation
									JOINT RFingers
									{
OFFSET 0 -0.616510 0.000000
CHANNELS 3 Zrotation Xrotation Yrotation
										End Site
										{
OFFSET 0 -0.497050 0.000000
										}
									}
								}
								JOINT RThumb
								{
OFFSET 0 0.000000 0.000000
CHANNELS 3 Zrotation Xrotation Yrotation
									End Site
									{
OFFSET 0 -0.504640 0.504640
									}
								}
							}
						}
					}
				}
			}
		}
	}
}
MOTION
Frames: 12
Frame Time: 0.008333333333333333
9.383738 16.411338 10.877838 -9.903437 -72.857627 -342.907317 0.000000 0.000000 0.000000 -12.050407 5.299165 -27.040727 8.567410 16.521181 54.581704 1.968881 -2.583926 -25.863231 0.338930 -3.740569 -10.348063 0.000000 0.000000 0.000000 1.513165 13.536605 -48.019928 -21.516193 -19.944146 94.437203 0.322915 10.202711 5.916712 -1.007443 6.383506 -17.902445 -4.155805 0.905502 10.219683 2.978847 0.819814 2.000186 5.363759 0.439626 -3.746840 1.894515 -6.590953 -11.319335 -0.257328 -9.312660 14.409911 -1.174716 -4.448551 6.128747 0.000000 0.000000 0.000000 8.485957 2.391192 -82.280020 96.442739 -59.841367 65.576555 -52.567579 -65.055670 -27.220840 0.000000 0.000000 0.000000 -7.125000 0.000000 0.000000 -66.362356 45.016190 0.051336 0.000000 0.000000 0.000000 1.856671 26.710870 42.109711 -110.157377 -58.406945 -77.363301 -15.990756 10.834918 13.592820 0.000000 0.000000 0.000000 7.125000 0.000000 0.000000 10.443399 43.847960 0.298993
9.307939 16.415728 10.803710 -8.370962 -66.634013 -344.837955 0.000000 0.000000 0.000000 -11.610636 6.809667 -28.379902 8.601227 16.544166 54.700628 1.907536 -1.522371 -25.704266 0.374434 -3.929960 -10.879639 0.000000 0.000000 0.000000 -0.150524 13.113349 -46.646993 -20.876966 -19.979706 92.564943 0.209291 8.269337 5.104277 -0.759109 5.547413 -15.480989 -3.645597 0.550585 10.413458 3.372317 0.415050 1.952988 5.545730 0.238448 -3.853212 1.439222 -7.182342 -10.995220 0.411296 -10.110946 13.901357 -0.935943 -4.815374 5.964170 0.000000 0.000000 0.000000 8.064164 2.186991 -82.223266 94.390161 -59.924481 63.800960 -51.384490 -64.490527 -27.492577 0.000000 0.000000 0.000000 -7.125000 0.000000 0.000000 -66.535723 45.449547 1.431878 0.000000 0.000000 0.000000 1.272403 27.717743 41.410922 -111.576128 -58.164173 -78.570123 -16.345927 10.083609 12.358357 0.000000 0.000000 0.000000 7.125000 0.000000 0.000000 9.840456 42.628696 0.579495
9.225183 16.418168 10.740228 -7.875513 -60.564701 -345.765619 0.000000 0.000000 0.000000 -11.130343 8.221754 -29.808894 8.653736 16.579654 54.884780 1.853272 -0.655735 -25.571732 0.379521 -3.956368 -10.953805 0.000000 0.000000 0.000000 -1.546802 12.727422 -44.821497 -20.076868 -19.998067 90.224872 0.099336 5.886494 4.330364 -0.444149 4.248903 -11.782181 -2.994316 0.235124 10.548864 3.794433 0.082638 1.909719 5.668724 0.069961 -3.932765 1.009262 -7.768384 -10.677588 1.119290 -10.906920 13.312933 -0.687717 -5.181021 5.785827 0.000000 0.000000 0.000000 7.577067 1.995261 -82.133533 92.197743 -59.979787 61.903158 -49.784507 -63.260212 -27.623264 0.000000 0.000000 0.000000 -7.125000 0.000000 0.000000 -66.354827 45.840649 2.614906 0.000000 0.000000 0.000000 0.547292 28.706449 40.696991 -113.114312 -57.880498 -79.874992 -17.288319 9.522454 11.869428 0.000000 0.000000 0.000000 7.125000 0.000000 0.000000 8.900414 42.223115 0.614761
9.136344 16.414716 10.688236 -7.811956 -54.757136 -346.301294 0.000000 0.000000 0.000000 -10.687216 9.560133 -31.270462 8.711875 16.618683 55.088375 1.820422 0.010033 -25.549380 0.359705 -3.852561 -10.662255 0.000000 0.000000 0.000000 -2.695114 12.403151 -42.563133 -19.117406 -19.980174 87.418349 0.014271 2.958341 3.392411 -0.167670 2.611297 -7.199714 -2.288143 -0.021653 10.581973 4.220093 -0.162984 1.887731 5.751304 -0.058810 -3.945751 0.618439 -8.340029 -10.381404 1.823387 -11.684229 12.678111 -0.445661 -5.539965 5.603710 0.000000 0.000000 0.000000 7.092448 1.833442 -81.977183 90.010349 -59.999291 60.008923 -47.621883 -61.235395 -27.594210 0.000000 0.000000 0.000000 -7.125000 0.000000 0.000000 -65.708338 46.208619 3.605305 0.000000 0.000000 0.000000 -0.341983 29.636463 39.986650 -114.656713 -57.572868 -81.179291 -18.700308 9.206939 12.180284 0.000000 0.000000 0.000000 7.125000 0.000000 0.000000 7.707953 42.687654 0.443926
9.042071 16.400604 10.648075 -7.813631 -49.270133 -346.777157 0.000000 0.000000 0.000000 -10.399893 10.807906 -32.690335 8.758822 16.649943 55.252113 1.825296 0.430545 -25.725592 0.326819 -3.673458 -10.159901 0.000000 0.000000 0.000000 -3.664902 12.090025 -39.894850 -17.994239 -19.898325 84.124904 -0.006869 -0.603799 2.062960 -0.025628 0.702085 -1.930875 -1.693549 -0.227781 10.491838 4.638226 -0.353702 1.873468 5.880341 -0.160479 -3.889909 0.244816 -8.867261 -10.079094 2.451279 -12.389596 12.047161 -0.224261 -5.872118 5.424762 0.000000 0.000000 0.000000 6.604127 1.775106 -81.700959 87.940878 -59.981898 58.216912 -44.696504 -58.312120 -27.388321 0.000000 0.000000 0.000000 -7.125000 0.000000 0.000000 -64.421123 46.583151 4.415124 0.000000 0.000000 0.000000 -1.539481 30.513712 39.388058 -116.078571 -57.266158 -82.377317 -20.256414 9.150194 13.080086 0.000000 0.000000 0.000000 7.125000 0.000000 0.000000 6.483623 43.796178 0.198774
8.943417 16.377266 10.619376 -7.730628 -44.043770 -347.340162 0.000000 0.000000 0.000000 -10.276135 11.912128 -33.945592 8.783567 16.666378 55.338569 1.868210 0.562162 -26.071104 0.292783 -3.478928 -9.615164 0.000000 0.000000 0.000000 -4.517761 11.733455 -36.851320 -16.729602 -19.736157 80.395835 0.064527 -4.627502 0.254606 -0.063998 -1.431149 3.939042 -1.250908 -0.399424 10.311777 5.021724 -0.518345 1.868321 6.053819 -0.248224 -3.777108 -0.099129 -9.346046 -9.772947 2.972106 -13.020086 11.474951 -0.035371 -6.175079 5.260252 0.000000 0.000000 0.000000 6.142952 1.804527 -81.354000 85.977218 -59.937011 56.516956 -41.178454 -54.702337 -26.914717 0.000000 0.000000 0.000000 -7.125000 0.000000 0.000000 -62.395148 46.873304 4.788843 0.000000 0.000000 0.000000 -3.028316 31.344258 38.915503 -117.292375 -56.988438 -83.396844 -21.734041 9.365164 14.215105 0.000000 0.000000 0.000000 7.125000 0.000000 0.000000 5.353365 45.167790 -0.017305
8.841262 16.345884 10.602437 -7.546314 -39.069787 -347.989304 0.000000 0.000000 0.000000 -10.257316 12.812814 -34.967118 8.786303 16.668202 55.348210 1.946981 0.269381 -26.513528 0.268257 -3.332046 -9.204666 0.000000 0.000000 0.000000 -5.260563 11.359361 -33.464319 -15.331734 -19.469138 76.233843 0.247078 -8.844685 -2.036220 -0.351930 -3.809795 10.542335 -0.984000 -0.537561 10.059672 5.361553 -0.661144 1.858232 6.276608 -0.322915 -3.630484 -0.409524 -9.766158 -9.467781 3.377921 -13.565750 11.010327 0.117527 -6.442237 5.122936 0.000000 0.000000 0.000000 5.703217 1.946073 -80.957536 84.066064 -59.866493 54.863408 -37.397327 -50.659992 -26.093275 0.000000 0.000000 0.000000 -7.125000 0.000000 0.000000 -59.683736 46.960693 4.522809 0.000000 0.000000 0.000000 -4.848779 32.150845 38.646771 -118.251084 -56.758262 -84.199861 -23.079339 9.909835 15.432967 0.000000 0.000000 0.000000 7.125000 0.000000 0.000000 4.339825 46.637120 -0.175626
8.736541 16.307477 10.598052 -7.291125 -34.347866 -348.668970 0.000000 0.000000 0.000000 -10.184313 13.321892 -35.694253 8.783775 16.666507 55.339197 2.060831 -0.751903 -26.961890 0.253422 -3.239080 -8.945189 0.000000 0.000000 0.000000 -5.834950 11.017333 -29.748763 -13.808475 -19.046191 71.611157 0.529825 -12.714343 -4.710019 -0.961758 -6.189565 17.353522 -0.884816 -0.647589 9.740608 5.642546 -0.787483 1.826958 6.528738 -0.387076 -3.468615 -0.679923 -10.109612 -9.181799 3.691911 -14.010867 10.699055 0.239501 -6.661772 5.029435 0.000000 0.000000 0.000000 5.318047 2.203452 -80.533887 82.153553 -59.764268 53.210234 -33.866511 -46.583674 -24.878757 0.000000 0.000000 0.000000 -7.125000 0.000000 0.000000 -56.573659 46.703378 3.545255 0.000000 0.000000 0.000000 -7.091384 32.944729 38.741833 -118.886875 -56.599143 -84.731123 -24.266744 11.011653 16.720070 0.000000 0.000000 0.000000 7.125000 0.000000 0.000000 3.467612 48.188197 -0.269252
8.631741 16.263692 10.601455 -7.079135 -29.870699 -349.259129 0.000000 0.000000 0.000000 -9.907266 13.460841 -36.285488 8.808403 16.682759 55.425023 2.180642 -2.455254 -27.304547 0.242567 -3.169410 -8.750728 0.000000 0.000000 0.000000 -6.214069 10.799756 -25.919401 -12.230318 -18.475340 66.705483 0.822614 -15.840001 -7.341693 -1.708063 -8.196929 23.332404 -0.840464 -0.721784 9.362245 5.873885 -0.874084 1.770771 6.752269 -0.430159 -3.303679 -0.905985 -10.390610 -8.948120 3.979396 -14.382220 10.502850 0.346337 -6.841999 4.976036 0.000000 0.000000 0.000000 5.007980 2.543090 -80.096182 80.238074 -59.634877 51.556433 -30.965668 -42.759473 -23.435697 0.000000 0.000000 0.000000 -7.125000 0.000000 0.000000 -53.593309 46.140193 2.164818 0.000000 0.000000 0.000000 -9.705525 33.716874 39.244372 -119.284028 -56.497678 -85.062582 -25.287599 12.691657 18.146298 0.000000 0.000000 0.000000 7.125000 0.000000 0.000000 2.773221 49.885434 -0.330485
8.528438 16.214925 10.609827 -6.982351 -25.606872 -349.725678 0.000000 0.000000 0.000000 -9.336917 13.196568 -36.834382 8.886667 16.734172 55.697221 2.279849 -4.741485 -27.494852 0.234858 -3.119194 -8.610744 0.000000 0.000000 0.000000 -6.333016 10.679372 -22.082483 -10.653527 -17.757494 61.646516 1.054999 -17.997732 -9.512875 -2.346738 -9.549654 27.533620 -0.743587 -0.777028 8.945490 6.056392 -0.933597 1.710081 6.887904 -0.460441 -3.126330 -1.072550 -10.619196 -8.798312 4.285675 -14.697014 10.359030 0.447818 -6.988580 4.950368 0.000000 0.000000 0.000000 4.812634 2.910822 -79.641098 78.399438 -59.484753 49.970997 -28.905810 -39.462838 -22.037039 0.000000 0.000000 0.000000 -7.125000 0.000000 0.000000 -51.186468 45.436458 0.766674 0.000000 0.000000 0.000000 -12.698710 34.409538 40.222733 -119.496545 -56.442622 -85.239661 -26.029374 14.889626 19.767528 0.000000 0.000000 0.000000 7.125000 0.000000 0.000000 2.398795 51.763344 -0.399088
8.428029 16.159981 10.619278 -7.068078 -21.615899 -350.042174 0.000000 0.000000 0.000000 -8.443989 12.574912 -37.470862 9.042791 16.835012 56.237737 2.327497 -7.438526 -27.507282 0.221639 -3.030269 -8.362904 0.000000 0.000000 0.000000 -6.142895 10.594221 -18.429267 -9.152646 -16.896024 56.603095 1.163499 -18.961718 -10.721446 -2.587399 -9.994853 28.960141 -0.530009 -0.824691 8.510654 6.203714 -0.976446 1.656635 6.914915 -0.483876 -2.935722 -1.200427 -10.789928 -8.683363 4.645177 -14.941784 10.155209 0.564439 -7.097793 4.912961 0.000000 0.000000 0.000000 4.735014 3.299856 -79.144567 76.780101 -59.328328 48.577172 -27.837784 -37.004052 -21.067482 0.000000 0.000000 0.000000 -7.125000 0.000000 0.000000 -49.774188 44.871597 -0.213454 0.000000 0.000000 0.000000 -16.208344 34.942229 41.830712 -119.606869 -56.413780 -85.331517 -26.198038 17.301872 21.522300 0.000000 0.000000 0.000000 7.125000 0.000000 0.000000 2.676622 53.684938 -0.575690
8.330344 16.099797 10.627629 -7.306208 -17.874773 -350.282937 0.000000 0.000000 0.000000 -7.355831 11.769312 -38.210401 9.262934 16.973583 56.994501 2.317761 -10.215410 -27.393543 0.198429 -2.867642 -7.910533 0.000000 0.000000 0.000000 -5.708916 10.373439 -15.079903 -7.777678 -15.940641 51.737002 1.149367 -18.878320 -10.837127 -2.324260 -9.502269 27.386443 -0.192219 -0.875986 8.087148 6.320072 -1.019157 1.641079 6.835549 -0.509449 -2.714673 -1.298393 -10.919905 -8.578266 5.043736 -15.130289 9.820712 0.696057 -7.180417 4.837101 0.000000 0.000000 0.000000 4.771944 3.659427 -78.676355 75.391765 -59.177088 47.383931 -27.388250 -35.254369 -20.620170 0.000000 0.000000 0.000000 -7.125000 0.000000 0.000000 -49.158492 44.599772 -0.657623 0.000000 0.000000 0.000000 -20.192280 35.240068 43.989527 -119.741412 -56.378462 -85.443610 -25.613933 19.302533 23.225621 0.000000 0.000000 0.000000 7.125000 0.000000 0.000000 3.805230 55.387025 -0.979468
